<?xml version="1.0" encoding="UTF-8"?>
<svg version="1.1" xmlns="http://www.w3.org/2000/svg" width="512" height="512">
<path d="M0 0 C1.21816406 0.90878906 1.21816406 0.90878906 2.4609375 1.8359375 C11.52062595 9.55757965 17.50824994 20.70532778 22.99462891 31.09912109 C23.88908549 32.7902913 24.80809052 34.46842634 25.73046875 36.14453125 C53.11174869 87.85027366 64.13788966 149.27229524 76 206 C77.07314453 205.68168213 77.07314453 205.68168213 78.16796875 205.35693359 C85.90339677 203.22168527 92.99688375 202.539456 101 202.625 C102.08539063 202.61339844 103.17078125 202.60179687 104.2890625 202.58984375 C111.90744774 202.61711721 118.70364509 203.83574338 126 206 C126.32254761 204.43717285 126.32254761 204.43717285 126.65161133 202.84277344 C134.52158015 164.85196734 143.05292279 126.9453581 155 90 C155.36303223 88.87513184 155.72606445 87.75026367 156.10009766 86.59130859 C161.1909298 70.99095089 167.10627283 55.89091046 174 41 C174.3491748 40.23977539 174.69834961 39.47955078 175.05810547 38.69628906 C183.01124377 21.54794108 193.53510428 1.90984702 211.5703125 -6.1484375 C218.32147857 -8.51460181 224.30107684 -8.29534797 231 -6 C240.49073228 -0.97549467 244.69020516 7.11789826 248 17 C267.82180874 84.32579865 245.70916139 189.0574693 212.85498047 250.12841797 C212.47873535 250.83756348 212.10249023 251.54670898 211.71484375 252.27734375 C211.36413818 252.91792725 211.01343262 253.55851074 210.65209961 254.21850586 C209.71884944 256.19497484 209.71884944 256.19497484 211 259 C212.49549039 260.43831282 212.49549039 260.43831282 214.375 261.875 C232.50896226 277.34888193 245.18813396 300.12397089 251 323 C251.18691406 323.73154297 251.37382812 324.46308594 251.56640625 325.21679688 C257.61134073 351.66338524 252.27090737 381.10343364 238 404 C235.81740404 407.13978262 233.46715388 410.08011066 231 413 C230.34386719 413.80179687 229.68773437 414.60359375 229.01171875 415.4296875 C211.69870394 435.74953304 186.06590577 447.06465555 160.625 453.3125 C159.23003296 453.65800903 159.23003296 453.65800903 157.80688477 454.01049805 C139.10020135 458.31260897 120.45336191 459.5510198 101.3125 459.4375 C100.21948578 459.43445862 99.12647156 459.43141724 98.00033569 459.42828369 C81.35865731 459.35992757 65.29351713 458.66792556 49 455 C47.50992432 454.67854004 47.50992432 454.67854004 45.98974609 454.35058594 C13.11736759 447.0972299 -17.93474647 431.71168021 -36.81738281 402.91455078 C-51.021143 379.9199415 -55.02837447 350.4825656 -49.51318359 324.18383789 C-44.73322987 304.55018712 -35.22759331 287.23489346 -22 272 C-21.23429687 271.113125 -20.46859375 270.22625 -19.6796875 269.3125 C-16.00269507 265.13796074 -12.42540176 261.39461641 -8 258 C-9.19509751 254.09203113 -10.67636353 250.50372508 -12.51171875 246.85449219 C-43.21144116 185.36404028 -66.38516605 81.46175738 -45 14 C-41.56599022 4.93462299 -37.09335489 -1.80824268 -28.375 -6.375 C-27.199375 -6.684375 -27.199375 -6.684375 -26 -7 C-25.13375 -7.2475 -24.2675 -7.495 -23.375 -7.75 C-14.07477326 -8.43890568 -7.20885775 -5.68547649 0 0 Z M-28 14 C-35.05678966 26.81040911 -34.40698148 42.24240919 -34.375 56.4375 C-34.37445618 57.35050873 -34.37391235 58.26351746 -34.37335205 59.20419312 C-34.2216515 115.23691515 -24.33236826 176.30081079 -3.3125 228.375 C-2.96848145 229.229729 -2.62446289 230.08445801 -2.27001953 230.96508789 C0.19350986 236.77530972 3.34336116 241.86455644 7 247 C7.71285156 246.54109375 8.42570312 246.0821875 9.16015625 245.609375 C11.14112433 244.34027566 13.12704119 243.07887621 15.1171875 241.82421875 C16.76031416 240.78446245 18.39621493 239.73251638 20.0078125 238.64453125 C24.57166071 235.70456392 27.735845 235.38584858 33 236 C35 237 35 237 36 239 C36.61057692 244.49519231 36.61057692 244.49519231 36 247 C33.18524371 250.44691195 29.81317911 252.45847251 26 254.6875 C6.05286798 266.66592326 -11.56041896 282.60881855 -23 303 C-23.70769531 304.21236328 -23.70769531 304.21236328 -24.4296875 305.44921875 C-35.38563802 325.48976178 -37.48522743 351.53997539 -31.1875 373.3125 C-23.74738525 396.41601422 -8.444948 413.68217081 12.90576172 425.01123047 C59.3554147 448.28969397 121.19450029 448.53568459 170 433 C193.66237186 424.64295646 216.45079929 410.13207256 228 387 C237.79245014 365.37849327 239.15550056 341.62366184 232 319 C231.66097656 317.88882812 231.32195312 316.77765625 230.97265625 315.6328125 C225.77954974 300.51551311 216.28759909 288.07836906 205 277 C204.50741699 276.51160645 204.01483398 276.02321289 203.50732422 275.52001953 C193.33017762 265.52418798 181.7142163 257.87025965 169.484375 250.62890625 C167 249 167 249 166 247 C165.54929577 239.90140845 165.54929577 239.90140845 167 237 C170.44661548 235.27669226 173.32801239 235.16519201 177 236 C182.01173878 238.40640466 186.86402549 241.18442166 191.109375 244.79296875 C192.90986936 246.15898776 192.90986936 246.15898776 195.01171875 246.1171875 C198.19564319 244.32818477 199.31303765 241.31248661 200.8125 238.125 C201.15796875 237.40594482 201.5034375 236.68688965 201.859375 235.94604492 C220.12746917 197.05524645 227.20149123 152.27580246 233 110 C233.09301392 109.32255737 233.18602783 108.64511475 233.28186035 107.94714355 C235.57381567 90.9925645 236.28832328 74.14794546 236.375 57.0625 C236.3830365 56.17776001 236.391073 55.29302002 236.39935303 54.38146973 C236.80894904 31.25277932 236.80894904 31.25277932 227.25 11 C223.73968697 9.43986088 220.70016012 9.20897637 217 10 C195.26059979 20.19734752 185.59424926 51.33104555 178.0625 72.125 C164.82764898 109.58062733 155.5171735 148.28785751 147.375 187.125 C147.15263672 188.1796344 146.93027344 189.2342688 146.70117188 190.32086182 C146.07181676 193.31916358 145.45191777 196.31923752 144.8359375 199.3203125 C144.55549088 200.65823853 144.55549088 200.65823853 144.26937866 202.02319336 C143.38001339 206.42410156 142.78354189 210.48201255 143 215 C143.85464844 215.40992188 144.70929688 215.81984375 145.58984375 216.2421875 C146.69457031 216.78101563 147.79929687 217.31984375 148.9375 217.875 C150.03964844 218.40867188 151.14179688 218.94234375 152.27734375 219.4921875 C155 221 155 221 156 223 C156.45070423 230.09859155 156.45070423 230.09859155 155 233 C151.70947864 234.64526068 148.55169778 234.54456942 145 234 C141.22943025 232.53370763 137.73187978 230.6299279 134.1875 228.6875 C118.74148089 220.31054772 103.43080727 217.07255405 85.99609375 220.609375 C81.10325375 222.08488294 76.62979389 224.1591707 72.09375 226.48828125 C71.21428711 226.93953369 70.33482422 227.39078613 69.42871094 227.85571289 C67.67737127 228.767297 65.93523306 229.69684044 64.20410156 230.64624023 C58.80267937 233.50446611 55.12026617 234.62562721 49 234 C47 233 47 233 46 231 C45.60175308 228.26916397 45.44258604 225.71056201 46 223 C49.13502834 218.86421343 54.44728393 217.18766876 59 215 C58.51133779 204.57174048 56.22563129 194.49114286 54.0625 184.3125 C53.8646994 183.37503937 53.6668988 182.43757874 53.46310425 181.47171021 C37.75658724 87.07655387 37.75658724 87.07655387 -11.5625 11.375 C-17.80434963 8.87826015 -23.2955335 8.51145574 -28 14 Z " fill="#FFFFFF" transform="translate(155,29)"/>
<path d="M0 0 C3.07062169 2.10095169 3.85556541 3.36973998 4.6875 7 C6.25604082 10.58523617 7.07636967 10.77636762 10.5625 12.25 C11.36816406 12.54390625 12.17382812 12.8378125 13.00390625 13.140625 C15 14 15 14 16 16 C16.55925433 22.93475366 16.55925433 22.93475366 14.6875 26.5 C10.32525915 28.93473908 5.8794994 28.50990415 1 28 C-1.00361307 27.34427209 -3.00491933 26.68124706 -5 26 C-5.59941406 26.30421875 -6.19882813 26.6084375 -6.81640625 26.921875 C-10.93578883 28.95577409 -15.52295877 28.52990776 -20 28 C-22.6875 26.5 -22.6875 26.5 -24 24 C-24.53138894 21.21163651 -24.56168629 18.78550549 -24 16 C-21.89904831 12.92937831 -20.63026002 12.14443459 -17 11.3125 C-13.41476383 9.74395918 -13.22363238 8.92363033 -11.75 5.4375 C-11.45609375 4.63183594 -11.1621875 3.82617188 -10.859375 2.99609375 C-8.99857526 -1.32603655 -4.07505433 -0.57406519 0 0 Z " fill="#FFFFFF" transform="translate(260,412)"/>
<path d="M0 0 C2.5 1.5 2.5 1.5 4 4 C4.791013 8.02098277 4.62153384 10.96411027 2.5 14.5 C-1.03588973 16.62153384 -3.97901723 16.791013 -8 16 C-10.5 14.5 -10.5 14.5 -12 12 C-12.791013 7.97901723 -12.62153384 5.03588973 -10.5 1.5 C-6.96411027 -0.62153384 -4.02098277 -0.791013 0 0 Z " fill="#FFFFFF" transform="translate(340,392)"/>
<path d="M0 0 C2.5 1.5 2.5 1.5 4 4 C4.791013 8.02098277 4.62153384 10.96411027 2.5 14.5 C-1.03588973 16.62153384 -3.97901723 16.791013 -8 16 C-10.5 14.5 -10.5 14.5 -12 12 C-12.791013 7.97901723 -12.62153384 5.03588973 -10.5 1.5 C-6.96411027 -0.62153384 -4.02098277 -0.791013 0 0 Z " fill="#FFFFFF" transform="translate(180,392)"/>
</svg>
